<svg width="116" height="34" viewBox="0 0 116 34" fill="none" xmlns="http://www.w3.org/2000/svg">
<path d="M24.3686 33.9893C22.3571 33.9893 20.3478 33.9893 18.3363 33.9893C18.0509 33.7704 18.0625 33.4491 18.0578 33.1416C18.0416 31.9796 18.0509 30.8175 18.0509 29.6554C18.0486 26.5557 18.0509 23.456 18.0509 20.3587C18.0509 19.313 18.03 18.2674 18.1089 17.2334C18.1066 17.2427 18.1112 17.2124 18.1112 17.2124C18.1112 17.2124 18.1089 17.2357 18.1066 17.2451C18.1414 17.9507 17.8513 18.5771 17.6611 19.2152C17.0207 21.3741 16.3154 23.5166 15.7609 25.701C15.7191 25.8687 15.6565 26.0317 15.5776 26.1878C15.4593 26.4183 15.2528 26.6209 15.3549 26.919C15.2157 27.5478 15.0463 27.7248 14.4384 27.7411C13.0347 27.7783 11.6287 27.7574 10.2227 27.7527C9.70536 27.7504 9.46406 27.4849 9.32254 27.0285C8.7541 25.2073 8.14855 23.3955 7.67292 21.5464C7.74253 21.2274 7.46875 21.0247 7.39683 20.7546C7.14857 19.8417 6.76343 18.9707 6.55694 17.9949C6.55926 22.981 6.56158 27.9181 6.55229 32.8552C6.55229 33.2488 6.64742 33.6819 6.27388 33.9917C4.26232 33.9917 2.25308 33.9917 0.241528 33.9917C0.0791186 33.7891 0.127844 33.5469 0.127844 33.3186C0.125524 22.5036 0.125524 11.6908 0.127844 0.875712C0.127844 0.666118 0.0907306 0.447205 0.195137 0.246925C0.373787 0.0815786 0.596519 0.13747 0.803011 0.13747C2.57559 0.135141 4.34817 0.132813 6.11843 0.13747C6.41077 0.132813 6.57086 0.277204 6.65903 0.556664C7.02097 1.69779 7.38755 2.83659 7.77733 3.9684C8.58706 6.30654 9.25758 8.69359 10.1253 11.0131C10.3272 11.5511 10.4548 12.1193 10.6195 12.6712C11.1114 14.3177 11.7215 15.9246 12.232 17.5525C12.2598 17.5338 12.2807 17.5199 12.3016 17.4919C12.8584 16.055 13.2621 14.5785 13.7494 13.1277C14.6867 10.3401 15.5753 7.53384 16.4732 4.73225C16.8815 3.46071 17.3316 2.20315 17.7052 0.919961C17.9024 0.242271 18.0509 0.135139 18.7214 0.135139C20.4406 0.13281 22.1598 0.13281 23.8814 0.135139C24.5217 0.137468 24.6006 0.218978 24.6401 0.87105C24.6517 1.06434 24.6493 1.25764 24.6493 1.45326C24.6517 11.8794 24.6517 22.3079 24.6447 32.7341C24.647 33.1649 24.7654 33.64 24.3686 33.9893Z" fill="white"/>
<path d="M88.6154 29.3526C88.7036 29.6717 88.9658 29.5273 89.1444 29.5273C91.0701 29.5389 92.9935 29.5459 94.9192 29.525C95.4065 29.5203 95.5851 29.6414 95.5712 30.1701C95.5364 31.4416 95.5735 32.7178 95.5828 33.9917C91.1745 33.9917 86.7686 33.9917 82.3603 33.9917C82.1817 33.8496 82.1098 33.6586 82.0958 33.4328C82.0819 33.1999 82.0773 32.967 82.0773 32.7364C82.075 22.287 82.075 11.8398 82.0819 1.39039C82.0819 0.994485 81.9891 0.570638 82.2815 0.218985C82.9821 0.0466515 83.6944 0.170075 84.3997 0.142129C84.8406 0.123499 85.2837 0.139806 85.7269 0.139806C86.4809 0.139806 87.2349 0.14679 87.989 0.137474C88.3532 0.132817 88.5319 0.267889 88.511 0.647489C88.4994 0.840782 88.511 1.03407 88.511 1.2297C88.511 10.3214 88.511 19.4155 88.5133 28.5073C88.5133 28.7867 88.446 29.0848 88.6154 29.3526Z" fill="white"/>
<path d="M71.4604 33.9893C71.4673 33.8729 71.4812 33.7588 71.4812 33.6424C71.4812 22.5245 71.4789 11.4067 71.4789 0.29118C71.6297 0.0815858 71.8594 0.139806 72.0613 0.137477C72.98 0.13049 73.9011 0.135146 74.8199 0.135146C75.6482 0.18638 76.4857 0.0280207 77.3071 0.223642C77.4695 0.423922 77.4301 0.666121 77.4301 0.894346C77.4324 11.6885 77.4324 22.4849 77.4301 33.2791C77.4301 33.5282 77.4649 33.7891 77.2584 33.9893C75.3257 33.9893 73.393 33.9893 71.4604 33.9893Z" fill="white"/>
<path d="M0.264726 0.260905C0.257765 2.31493 0.246161 4.36896 0.246161 6.42532C0.243841 15.6125 0.243838 24.8021 0.243838 33.9893C0.171914 33.9404 -0.00209804 34.1035 0.00950263 33.8729C0.016463 33.7378 0.011825 33.6028 0.011825 33.4654C0.011825 22.3941 0.011825 11.3205 0.011825 0.249264C0.09767 0.181728 0.183521 0.188711 0.264726 0.260905Z" fill="white"/>
<path d="M77.4881 0.25857C77.4927 0.801187 77.502 1.34381 77.502 1.88643C77.502 12.3173 77.502 22.7458 77.502 33.1766C77.502 33.4491 77.495 33.7192 77.4927 33.9917C77.4161 33.9917 77.3372 33.9917 77.2607 33.9917C77.2607 22.7504 77.2584 11.5091 77.2584 0.270219C77.3303 0.193367 77.4069 0.181719 77.4881 0.25857Z" fill="white"/>
<path d="M88.6154 29.3526C88.2349 29.2455 88.4182 28.9311 88.4182 28.7215C88.4089 19.5459 88.4113 10.3727 88.4066 1.1971C88.4066 0.0932302 88.5458 0.260904 87.4553 0.24926C86.8776 0.242274 86.2976 0.237614 85.7199 0.232957C85.6549 0.160763 85.6572 0.088566 85.7245 0.0187011C86.692 0.0187011 87.6572 0.0187011 88.6247 0.0187011C88.6293 4.18265 88.6386 8.34428 88.641 12.5082C88.6433 17.8319 88.641 23.158 88.641 28.4817C88.641 28.7728 88.6247 29.0615 88.6154 29.3526Z" fill="white"/>
<path d="M116 28.8706C115.926 28.8729 115.849 28.8752 115.775 28.8776C115.773 26.225 115.766 23.5725 115.766 20.92C115.763 16.0387 115.763 11.1598 115.766 6.2786C115.766 6.12489 115.782 5.97119 115.789 5.81516C115.858 5.82215 115.93 5.82913 116 5.83379C116 13.5143 116 21.1924 116 28.8706Z" fill="white"/>
<path d="M110.548 0.0187011C110.548 0.0932236 110.548 0.167751 110.55 0.242274C108.267 0.242274 105.984 0.242274 103.701 0.242274C103.703 0.167751 103.703 0.0932236 103.706 0.0187011C105.986 0.0187011 108.267 0.0187011 110.548 0.0187011Z" fill="white"/>
<path d="M0.264726 0.260905C0.181201 0.258576 0.0976675 0.253916 0.0118226 0.251587C-0.0601016 -0.107053 0.213674 0.0233664 0.359843 0.0233664C2.33196 0.01638 4.30407 0.0187042 6.27618 0.0187042C6.27386 0.102542 6.27155 0.186384 6.26691 0.270222C4.26695 0.267893 2.26468 0.265563 0.264726 0.260905Z" fill="white"/>
<path d="M74.8199 0.232957C73.7062 0.251587 72.5926 0.27255 71.4789 0.29118C71.472 0.200356 71.4673 0.109525 71.4604 0.0187011C72.581 0.0187011 73.7039 0.0187011 74.8245 0.0187011C74.8918 0.0908948 74.8918 0.163092 74.8199 0.232957Z" fill="white"/>
<path d="M85.7269 0.0187011C85.7245 0.0908948 85.7245 0.160763 85.7222 0.232957C84.6039 0.244601 83.4879 0.256243 82.3719 0.267888C82.3696 0.18405 82.3673 0.10021 82.365 0.0187011C83.4833 0.0187011 84.6062 0.0187011 85.7269 0.0187011Z" fill="white"/>
<path d="M74.8199 0.232957C74.8222 0.160763 74.8222 0.0908948 74.8245 0.0187011C75.7132 0.0187011 76.6041 0.0187011 77.4927 0.0187011C77.4904 0.0978813 77.4904 0.177061 77.4881 0.25857C77.4115 0.260899 77.3349 0.265559 77.2584 0.267888C76.444 0.256243 75.632 0.244601 74.8199 0.232957Z" fill="white"/>
<path d="M32.9438 33.7658C33.2756 33.7588 33.6329 33.6447 33.8811 33.9893C33.5726 33.9893 33.2617 33.9893 32.9531 33.9893C32.9485 33.9148 32.9461 33.8403 32.9438 33.7658Z" fill="white"/>
<path d="M40.6072 33.9893C40.7859 33.7122 41.055 33.7448 41.3241 33.7821C41.3172 33.8519 41.3102 33.9195 41.3033 33.9893C41.0712 33.9893 40.8392 33.9893 40.6072 33.9893Z" fill="white"/>
<path d="M103.009 33.9893C103.005 33.9195 103 33.8473 102.996 33.7774C103.255 33.7704 103.545 33.661 103.706 33.9893C103.474 33.9893 103.242 33.9893 103.009 33.9893Z" fill="white"/>
<path d="M111.142 33.7728C111.137 33.845 111.132 33.9171 111.128 33.9917C110.896 33.9917 110.664 33.9917 110.432 33.9917C110.589 33.6563 110.879 33.7611 111.142 33.7728Z" fill="white"/>
<path d="M18.32 16.7956C18.1414 16.8096 18.1089 17.082 17.8977 17.0355C17.9093 16.9074 17.8954 16.77 17.9395 16.6512C17.9836 16.5348 18.0741 16.3787 18.2133 16.416C18.4082 16.4696 18.3455 16.6512 18.32 16.7956Z" fill="white"/>
<path d="M12.0904 18.1556C12.2343 18.0788 12.3804 18.0019 12.5243 17.9251C12.5382 18.1277 12.5823 18.3489 12.2923 18.3932C12.1183 18.4211 12.0742 18.3093 12.0904 18.1556Z" fill="white"/>
<path d="M7.89101 21.43C7.63115 21.253 7.64275 20.9898 7.67059 20.722C7.95365 20.8943 7.92117 21.1622 7.89101 21.43Z" fill="white"/>
<path d="M15.3131 26.0737C15.3386 26.3415 15.3804 26.6139 15.095 26.7816C15.0672 26.5138 15.0486 26.2506 15.3131 26.0737Z" fill="white"/>
<path d="M41.5399 0.477482C41.2104 0.468167 40.8485 0.607903 40.5933 0.265565C40.9274 0.251592 41.2823 0.151446 41.5399 0.477482Z" fill="white"/>
<path d="M28.5356 4.66937C28.5518 4.93486 28.5889 5.205 28.3198 5.382C28.2943 5.11418 28.2363 4.83705 28.5356 4.66937Z" fill="white"/>
<path d="M67.5277 12.3545C67.537 12.096 67.4233 11.8026 67.7319 11.6279C67.7667 11.9004 67.827 12.1775 67.5277 12.3545Z" fill="white"/>
<path d="M32.7304 0.493787C32.5471 0.747629 32.2826 0.729002 32.0181 0.708042C32.1874 0.407623 32.4635 0.461183 32.7304 0.493787Z" fill="white"/>
<path d="M33.8951 0.265564C33.7164 0.563654 33.4357 0.482144 33.1712 0.461185C33.3429 0.139806 33.6329 0.256249 33.8951 0.265564Z" fill="white"/>
<path fill-rule="evenodd" clip-rule="evenodd" d="M49.8872 23.0171C49.8867 26.6747 49.8862 30.3321 49.8854 33.9893C54.1382 33.9893 58.391 33.9893 62.6438 33.9847C62.7042 33.8869 62.7714 33.7867 62.8991 33.7774C63.3548 33.7468 63.7229 33.5179 64.0894 33.29C64.1688 33.2406 64.2481 33.1912 64.3283 33.144C65.66 32.3592 66.5533 31.1924 67.1588 29.7881C67.5625 28.8519 67.8038 27.8948 67.7806 26.8538C67.7296 24.5506 67.6971 22.2427 67.7574 19.9395C67.7992 18.3489 67.2354 17.0331 66.2818 15.8408C66.1055 15.6219 66.0312 15.4146 66.1937 15.2376C66.903 14.4597 67.1867 13.4951 67.4719 12.526C67.4889 12.468 67.506 12.4101 67.5231 12.3522C67.6198 12.2468 67.6248 12.1156 67.6298 11.9842C67.6346 11.8571 67.6394 11.7298 67.7272 11.6256C67.7388 9.97911 67.7505 8.3303 67.7574 6.68382L67.7577 6.66322C67.76 6.47836 67.7624 6.28382 67.7087 6.11092C67.3305 4.91158 66.8549 3.74251 66.0846 2.74577C64.8967 1.20642 63.37 0.246932 61.3492 0.251587C59.2145 0.25578 57.0807 0.254941 54.9467 0.254103C53.525 0.253548 52.1033 0.252987 50.6812 0.253918C50.2325 0.253918 50.0347 0.232831 49.9493 0.321186C49.8622 0.411438 49.8924 0.615893 49.8924 1.07366C49.8893 8.38757 49.8883 15.7025 49.8872 23.0171ZM59.7785 12.8249C60.6462 12.8459 61.1937 12.45 61.4954 11.6605C61.5934 11.5586 61.5975 11.4289 61.6016 11.2991C61.6056 11.171 61.6097 11.0427 61.7042 10.9409C61.7042 10.6219 61.6985 10.3022 61.6929 9.9824V9.98009C61.6798 9.23386 61.6666 8.48696 61.725 7.74577C61.79 6.91903 61.4814 6.29956 60.9548 5.75927C60.4583 5.24926 59.9038 4.85568 59.1033 4.91623C58.3315 4.97717 57.5516 4.9527 56.7749 4.92832L56.6115 4.92323C56.231 4.91158 56.0987 5.04665 56.101 5.41926C56.1103 7.74576 56.1103 10.0723 56.101 12.3964C56.101 12.7248 56.2054 12.8296 56.5326 12.8249C57.6138 12.8063 58.6973 12.797 59.7785 12.8249ZM55.9663 22.1149C55.9652 22.5798 55.9642 23.0447 55.9642 23.5096C55.9642 23.7385 55.9643 23.9673 55.9645 24.1962L55.965 24.8555C55.9663 26.1891 55.9676 27.523 55.9572 28.8543C55.9549 29.334 56.1266 29.5506 56.63 29.539C57.6741 29.5157 58.7182 29.5227 59.7599 29.5366C60.3028 29.5459 60.6996 29.2967 61.0128 28.8869C61.4791 28.2767 61.7019 27.5827 61.7019 26.8166C61.7019 26.2464 61.7003 25.6761 61.6987 25.1057C61.6946 23.5839 61.6905 22.0615 61.7158 20.5404C61.7274 19.8091 61.5975 19.1291 61.2262 18.5259C60.9339 18.0508 60.5511 17.6573 59.8782 17.6829C58.7994 17.7248 57.7159 17.7225 56.6347 17.6829C56.0755 17.6619 55.9479 17.8832 55.9549 18.3955C55.9718 19.6353 55.969 20.8751 55.9663 22.1149Z" fill="white"/>
<path d="M61.4954 11.6605C61.4814 11.3974 61.4606 11.1319 61.7042 10.9432C61.7413 11.2134 61.8063 11.4905 61.4954 11.6605Z" fill="white"/>
<path fill-rule="evenodd" clip-rule="evenodd" d="M40.5956 0.265564L33.8951 0.265564C33.7886 0.360606 33.6573 0.364131 33.5259 0.367656C33.3997 0.371046 33.2734 0.374436 33.1689 0.458853C33.0227 0.470495 32.8765 0.479812 32.7304 0.491453C32.6309 0.588962 32.5032 0.593311 32.3754 0.597668C32.2468 0.602046 32.1181 0.606431 32.0181 0.705709C31.8175 0.68443 31.6513 0.774753 31.488 0.863463C31.4191 0.90096 31.3506 0.938165 31.2803 0.966536C30.5239 1.27394 29.8186 1.63957 29.4172 2.44534C29.0599 3.16495 28.7397 3.88922 28.5332 4.66472C28.4349 4.76454 28.4306 4.89272 28.4262 5.0207C28.4219 5.14948 28.4175 5.27806 28.3175 5.37734C28.0681 6.51007 28.0911 7.65634 28.114 8.80066C28.1212 9.15734 28.1283 9.51383 28.1272 9.86965C28.1212 12.3247 28.1221 14.7797 28.123 17.2347C28.1242 20.455 28.1254 23.6754 28.111 26.8957C28.1063 28.0788 28.2734 29.2129 28.6608 30.3238C29.4195 32.5105 30.568 33.3349 32.9415 33.7658C33.0765 33.8817 33.2402 33.8771 33.4041 33.8725C33.5726 33.8678 33.7412 33.863 33.8788 33.9893L40.6072 33.9893C40.7108 33.8792 40.8458 33.8752 40.9809 33.8711C41.103 33.8675 41.225 33.8639 41.3241 33.7821C42.4842 33.5515 43.6512 33.2162 44.3983 32.266C45.389 31.0084 45.9899 29.532 45.9922 27.8925C45.9983 24.8899 45.9982 21.8877 45.9981 18.8856C45.9979 15.0258 45.9977 11.1661 46.0108 7.30561C46.0154 6.3275 45.8855 5.39132 45.5862 4.47842C45.1941 3.27907 44.7927 2.08437 43.6605 1.32285C43.0463 0.910363 42.3599 0.712858 41.6695 0.51416L41.5422 0.477481C41.401 0.358133 41.2316 0.362304 41.0624 0.366469C40.8981 0.370513 40.7339 0.37455 40.5956 0.265564ZM39.9073 8.53536C39.9055 7.87007 39.9036 7.20475 39.9019 6.53942C39.8041 6.43779 39.7991 6.30862 39.7942 6.17924C39.7893 6.0507 39.7844 5.92195 39.6884 5.81982C39.6256 5.46307 39.3482 5.31561 39.0717 5.16866C39.0522 5.15828 39.0327 5.14791 39.0133 5.13747C38.4751 4.85048 37.9052 4.88534 37.3381 4.92003C37.1228 4.93319 36.908 4.94633 36.6954 4.94185C35.1224 4.90692 34.1595 5.84078 34.1572 7.4174C34.1456 14.1058 34.1456 20.7965 34.1642 27.4849C34.1642 27.9856 34.3591 28.47 34.7744 28.824C35.3289 29.2968 35.9437 29.5785 36.6908 29.539C36.9975 29.5228 37.3054 29.5268 37.6136 29.5308C37.7506 29.5325 37.8878 29.5343 38.0249 29.5343C39.1409 29.5366 39.9274 28.9171 39.9251 27.6526C39.9176 24.8472 39.9188 22.0429 39.9199 19.2388C39.9206 17.6807 39.9212 16.1226 39.9204 14.5646C39.9187 12.5558 39.913 10.5458 39.9073 8.53536Z" fill="white"/>
<path d="M39.9019 6.53942C39.6304 6.3601 39.6629 6.08996 39.6908 5.82215C40.0179 5.98517 39.8996 6.28092 39.9019 6.53942Z" fill="white"/>
<path fill-rule="evenodd" clip-rule="evenodd" d="M103.703 33.9893H110.432C110.587 33.8554 110.765 33.8643 110.943 33.8733C111.028 33.8776 111.113 33.8819 111.195 33.8706C111.36 33.8825 111.517 33.8479 111.676 33.8131C111.796 33.7867 111.917 33.7602 112.042 33.7541C113.039 33.7076 113.858 33.1836 114.473 32.5012C115.422 31.4486 115.84 30.1188 115.886 28.6889V6.0038C115.879 4.45978 115.48 3.02522 114.545 1.80026C114.016 1.10627 113.299 0.600908 112.395 0.451867C112.158 0.549738 111.959 0.453957 111.758 0.357663C111.734 0.346271 111.711 0.334871 111.687 0.323784C111.631 0.319122 111.573 0.31446 111.518 0.312136C111.307 0.322448 111.11 0.270268 110.912 0.218167C110.797 0.187948 110.683 0.157757 110.566 0.139805C110.501 0.137474 110.436 0.137474 110.374 0.137474C109.658 0.137474 108.943 0.137218 108.228 0.136955C106.797 0.136436 105.365 0.135917 103.933 0.137474C103.866 0.137474 103.801 0.139798 103.733 0.14446C103.7 0.153095 103.666 0.162071 103.633 0.17104C103.405 0.232217 103.178 0.293054 102.938 0.242274C102.892 0.244378 102.845 0.245849 102.799 0.24732C102.691 0.250738 102.583 0.254171 102.476 0.265564C102.444 0.28046 102.411 0.295932 102.379 0.311411C102.159 0.416886 101.939 0.522646 101.678 0.449536C100.631 0.777902 99.6106 1.17846 99.0329 2.1915C98.2742 3.52359 97.8472 4.95582 97.8496 6.51148C97.8554 11.0033 97.8548 15.4943 97.8541 19.9854C97.8538 22.5519 97.8534 25.1184 97.8542 27.6852C97.8542 27.7312 97.8541 27.7772 97.854 27.8232C97.8532 28.1451 97.8524 28.4671 97.889 28.7891C97.887 28.9154 97.9467 29.0253 98.0063 29.135C98.083 29.2761 98.1596 29.417 98.1048 29.5925C98.2533 30.6661 98.6593 31.6512 99.353 32.4616C100.283 33.5492 101.592 33.81 102.952 33.8729C103.03 33.8824 103.111 33.8779 103.192 33.8734C103.37 33.8635 103.547 33.8536 103.703 33.9893ZM109.764 20.2286C109.766 19.2652 109.768 18.3017 109.768 17.3382C109.768 16.9048 109.768 16.4713 109.768 16.0378C109.769 14.2813 109.769 12.5234 109.763 10.7639C109.761 9.36895 109.757 7.97399 109.745 6.57902C109.736 5.52872 109.098 4.89062 108.019 4.91391C107.945 4.91555 107.872 4.91739 107.798 4.91922C107.351 4.93037 106.901 4.94157 106.455 4.91157C104.88 4.80911 104.107 5.99681 104.109 7.21945C104.121 14.001 104.119 20.7849 104.112 27.5688C104.112 28.2977 104.49 28.7495 105.068 29.1081C106.042 29.7113 107.118 29.5809 108.149 29.4528C109.406 29.2967 109.798 28.7472 109.782 27.4546C109.752 25.046 109.758 22.6373 109.764 20.2286Z" fill="white"/>
<path d="M110.652 0.260901C110.986 0.251586 111.343 0.130487 111.594 0.479812C111.265 0.477483 110.912 0.568307 110.652 0.260901Z" fill="white"/>
<path d="M111.587 0.489128C111.852 0.472826 112.125 0.421592 112.29 0.715025C112.026 0.733655 111.759 0.766259 111.587 0.489128Z" fill="white"/>
<path d="M101.842 0.710361C102.012 0.412271 102.288 0.47748 102.552 0.493782C102.381 0.780228 102.105 0.726663 101.842 0.710361Z" fill="white"/>
<path d="M98.3599 29.5785C98.0537 29.4132 98.1372 29.1267 98.1442 28.8659C98.4203 29.0429 98.3855 29.3131 98.3599 29.5785Z" fill="white"/>
<path d="M102.989 0.468173C103.165 0.163096 103.455 0.26789 103.715 0.26789C103.539 0.575295 103.258 0.500776 102.989 0.468173Z" fill="white"/>
</svg>
